<?xml version="1.0" standalone="no"?>
<!DOCTYPE svg PUBLIC "-//W3C//DTD SVG 20010904//EN"
 "http://www.w3.org/TR/2001/REC-SVG-20010904/DTD/svg10.dtd">
<svg version="1.0" xmlns="http://www.w3.org/2000/svg"
 width="700.000000pt" height="700.000000pt" viewBox="0 0 700.000000 700.000000"
 preserveAspectRatio="xMidYMid meet">
<metadata>
Created by potrace 1.14, written by Peter Selinger 2001-2017
</metadata>
<g transform="translate(0.000000,700.000000) scale(0.100000,-0.100000)"
fill="#000000" stroke="none">
<path d="M3037 6914 c-1 -1 -33 -5 -72 -8 -224 -19 -407 -72 -630 -183 -156
-77 -298 -183 -440 -327 -170 -173 -282 -344 -371 -565 l-42 -106 -64 -16
c-321 -84 -605 -250 -823 -481 -115 -122 -170 -197 -258 -350 -62 -108 -158
-340 -156 -378 0 -3 -4 -18 -10 -33 -6 -15 -13 -40 -16 -55 -5 -26 -9 -46 -20
-101 -18 -92 -24 -314 -12 -447 29 -325 180 -685 391 -932 26 -30 44 -57 42
-61 -7 -11 -46 -161 -52 -201 -3 -19 -7 -37 -9 -40 -18 -29 -26 -377 -12 -500
11 -92 61 -291 97 -385 180 -465 536 -828 986 -1005 100 -39 251 -82 335 -96
24 -3 55 -9 69 -11 14 -3 106 -6 205 -7 133 -2 206 1 280 14 l100 17 65 -65
c275 -272 612 -440 990 -492 84 -12 332 -16 400 -7 19 3 58 8 85 11 42 6 105
19 240 51 38 9 223 84 286 116 266 134 505 350 674 609 53 82 143 265 169 346
17 51 17 51 74 64 168 37 386 133 547 241 94 63 254 197 300 250 138 162 204
259 278 404 130 255 187 499 185 795 -2 350 -96 655 -294 950 -35 52 -74 106
-86 120 -65 73 -62 58 -34 161 44 163 58 277 58 448 0 124 -11 260 -26 310 -3
9 -8 30 -11 47 -9 59 -56 208 -91 293 -130 316 -348 583 -639 782 -54 37 -53
36 -165 96 -136 72 -330 139 -470 163 -41 7 -86 15 -100 18 -72 13 -390 8
-482 -7 l-98 -17 -52 54 c-278 283 -642 460 -1047 508 -48 6 -269 12 -274 8z
m293 -462 c207 -37 389 -114 550 -231 33 -24 57 -48 52 -53 -6 -6 -902 -526
-1306 -757 -113 -64 -160 -108 -179 -165 -12 -34 -14 -214 -16 -1011 -1 -533
-3 -971 -5 -973 -6 -5 -559 317 -571 332 -7 8 -10 311 -9 867 2 872 2 873 38
1039 62 281 277 584 539 758 26 18 51 32 54 32 4 0 14 6 22 13 57 47 297 129
444 151 92 14 303 13 387 -2z m1650 -537 c430 -77 789 -359 959 -753 43 -99
87 -257 98 -352 12 -112 5 -351 -11 -367 -2 -2 -66 33 -142 78 -76 44 -159 92
-183 106 -24 13 -159 91 -300 172 -141 82 -272 158 -291 168 -19 11 -127 74
-240 140 -246 143 -289 164 -338 168 -70 4 -82 -2 -479 -231 -75 -44 -399
-231 -437 -253 -300 -173 -468 -270 -647 -374 -118 -68 -216 -121 -219 -116
-3 4 -5 155 -5 336 l0 328 280 162 c154 90 286 166 294 170 8 3 64 35 125 71
61 36 127 74 146 85 19 10 141 81 270 155 129 75 276 158 325 184 83 43 212
92 272 102 13 3 31 7 41 10 36 11 80 17 167 23 50 3 91 6 92 7 4 3 189 -13
223 -19z m-3580 -1506 c0 -597 3 -832 12 -861 19 -63 65 -104 213 -189 1025
-592 1403 -810 1468 -847 43 -25 76 -46 75 -47 -4 -3 -250 -145 -298 -173 -19
-10 -85 -48 -146 -84 -61 -36 -118 -68 -127 -71 -10 -4 -37 5 -65 22 -26 15
-68 39 -93 53 -24 14 -217 126 -429 248 -212 123 -398 231 -415 240 -220 125
-458 268 -508 303 -245 176 -444 485 -497 775 -5 31 -13 68 -16 82 -3 14 -6
79 -8 145 -5 219 36 401 134 600 93 189 218 337 385 461 76 55 275 164 303
164 9 0 12 -171 12 -821z m3124 381 c76 -44 140 -80 142 -80 3 0 21 -11 42
-24 20 -13 111 -66 202 -119 844 -486 961 -554 980 -576 3 -4 23 -19 44 -35
103 -77 244 -249 318 -386 129 -240 184 -573 134 -818 -3 -15 -8 -38 -10 -52
-56 -282 -241 -575 -476 -753 -87 -66 -292 -177 -326 -177 -5 0 -8 354 -8 813
2 910 4 887 -65 954 -21 21 -56 47 -77 58 -21 11 -81 45 -134 76 -52 31 -246
143 -430 249 -184 107 -432 250 -550 318 -118 69 -232 134 -253 146 -21 11
-46 26 -55 31 -9 6 -59 34 -110 64 -52 29 -90 57 -85 61 7 6 375 219 463 268
14 7 43 24 65 38 22 13 42 24 45 24 3 0 68 -36 144 -80z m-901 -516 c73 -42
141 -82 152 -88 175 -97 445 -261 446 -269 1 -20 1 -801 0 -824 -1 -15 -13
-29 -38 -43 -21 -11 -51 -29 -68 -39 -16 -10 -50 -29 -75 -43 -25 -14 -159
-92 -299 -173 l-255 -147 -60 32 c-34 18 -85 48 -114 66 -29 19 -55 34 -57 34
-3 0 -107 60 -233 133 -125 72 -239 138 -253 145 l-25 13 1 426 0 426 25 17
c14 10 88 54 165 98 77 44 230 132 340 196 110 64 204 116 208 116 4 0 67 -34
140 -76z m1016 -589 c51 -30 95 -55 96 -55 2 0 39 -21 82 -46 43 -26 94 -56
113 -67 19 -11 70 -40 113 -64 l78 -45 -2 -852 c-1 -778 -2 -860 -19 -951 -37
-202 -92 -342 -199 -505 -68 -104 -239 -278 -339 -344 -173 -114 -375 -191
-561 -214 -70 -8 -280 -7 -343 2 -174 25 -398 112 -538 210 -55 38 -96 74 -90
79 3 2 43 25 90 52 47 26 99 55 115 65 17 10 145 84 285 165 140 81 327 189
415 240 88 51 176 102 195 112 174 98 311 181 337 206 70 66 67 12 67 1094 0
535 3 973 6 973 3 0 48 -25 99 -55z m-416 -1309 c0 -234 -3 -329 -12 -339 -6
-8 -84 -57 -174 -108 -89 -52 -171 -99 -182 -106 -11 -7 -26 -15 -34 -19 -7
-4 -52 -30 -100 -57 -47 -28 -111 -64 -141 -82 -30 -17 -131 -76 -225 -130
-93 -54 -260 -150 -370 -213 -110 -64 -234 -130 -275 -148 -90 -39 -225 -79
-300 -89 -30 -4 -66 -9 -80 -11 -30 -5 -225 -5 -260 0 -35 4 -134 20 -140 21
-3 1 -18 5 -35 9 -337 85 -628 304 -804 605 -53 89 -109 231 -138 347 -24 98
-27 128 -27 289 -1 104 3 187 9 197 9 15 33 4 210 -98 371 -215 540 -312 576
-332 20 -11 67 -39 104 -61 37 -23 69 -41 71 -41 2 0 44 -25 95 -55 50 -30 93
-55 94 -55 1 0 69 -38 150 -85 82 -47 158 -86 169 -86 72 -5 108 2 162 30 64
33 83 44 309 176 83 48 170 99 195 113 25 14 88 50 140 80 191 111 351 203
645 372 165 95 313 181 330 191 16 10 31 16 33 14 2 -2 4 -150 5 -329z"/>
</g>
</svg>
